<svg width="40" height="40" viewBox="0 0 40 40" fill="none" xmlns="http://www.w3.org/2000/svg">
<g clip-path="url(#clip0_17_2)">
<path opacity="0.05" d="M26.6941 37.996L26.6841 32.198C26.6841 31.259 26.4641 30.342 26.0421 29.511C31.6831 28.378 34.4281 25.043 34.4281 19.334C34.4281 17.079 33.7631 15.088 32.4521 13.414C32.5521 13.097 32.6261 12.769 32.6721 12.433C32.8601 11.064 32.6491 10.169 32.4791 9.44902L32.4521 9.33302C32.2661 8.53702 32.0431 7.96902 32.0341 7.94502L31.9231 7.66302L31.8121 7.38102L31.5101 7.34902L31.2071 7.31702C31.2071 7.31702 31.0081 7.29602 30.7061 7.29602C30.2871 7.29602 29.6661 7.33802 29.0791 7.53702L28.8831 7.60302C28.1431 7.85202 27.4441 8.08802 26.4661 8.67202C26.1801 8.84302 25.8671 9.03802 25.5321 9.25602C24.0181 8.88102 22.3891 8.69002 20.6841 8.69002C18.9621 8.69002 17.3191 8.88202 15.7951 9.26102C15.4561 9.04102 15.1411 8.84402 14.8531 8.67202C13.8751 8.08802 13.1761 7.85302 12.4361 7.60302L12.2401 7.53702C11.6551 7.33802 11.0331 7.29602 10.6141 7.29602C10.3121 7.29602 10.1131 7.31702 10.1131 7.31702L9.8111 7.34902L9.5111 7.38002L9.3991 7.66102L9.2861 7.94402C9.2761 7.97002 9.0531 8.53802 8.8671 9.33502L8.8401 9.45002C8.6701 10.169 8.4591 11.065 8.6471 12.433C8.6951 12.779 8.7721 13.118 8.8771 13.444C7.5921 15.11 6.9411 17.09 6.9411 19.334C6.9411 25.029 9.6891 28.362 15.3381 29.504C15.1441 29.892 14.9931 30.302 14.8861 30.728C14.6891 30.795 14.5081 30.84 14.3481 30.865C14.1101 30.901 13.8611 30.919 13.6091 30.919C12.9231 30.919 12.3841 30.785 12.1741 30.66C11.8611 30.474 11.3021 29.933 10.7601 29.142C10.2971 28.467 9.5751 27.584 8.7681 27.215C8.0701 26.896 7.3311 26.713 6.7391 26.713C6.6011 26.713 6.4741 26.723 6.3631 26.741C5.8461 26.823 5.4141 27.107 5.1791 27.521C4.9761 27.878 4.9441 28.294 5.0911 28.662C5.3101 29.21 5.9421 29.647 6.4341 29.917C6.6761 30.05 7.1991 30.536 7.5041 31.026C7.7331 31.394 7.8391 31.656 7.9861 32.018C8.0731 32.233 8.1691 32.467 8.2991 32.75C8.7691 33.772 10.2361 34.674 10.4021 34.773C11.2081 35.256 12.5631 35.411 13.5591 35.456L13.6821 35.459H13.6831C13.9231 35.459 14.2531 35.436 14.6871 35.388V38.001C14.6891 38.53 14.1501 38.65 13.4371 38.639L13.9841 38.823C16.0791 39.572 18.3291 40 20.6841 40C23.0391 40 25.2891 39.572 27.3871 38.824L28.0901 38.562C27.3791 38.538 26.7001 38.422 26.6941 37.996Z"  fill="#18181b"/>
<path opacity="0.07" d="M27.968 38.797C27.562 38.844 26.687 38.688 26.687 38.002V32.198C26.687 31.104 26.359 30.047 25.751 29.146C31.666 28.189 34.43 25.053 34.43 19.334C34.43 17.097 33.744 15.14 32.391 13.512C32.528 13.147 32.624 12.762 32.679 12.365C32.854 11.089 32.663 10.279 32.495 9.56402L32.468 9.44802C32.29 8.68702 32.08 8.15102 32.071 8.12902L31.96 7.84702L31.657 7.81502C31.657 7.81502 31.479 7.79602 31.208 7.79602C30.827 7.79602 30.264 7.83302 29.742 8.01102L29.546 8.07702C28.832 8.31802 28.157 8.54502 27.225 9.10102C26.893 9.29902 26.523 9.53202 26.124 9.79502C24.591 9.39402 22.932 9.19002 21.187 9.19002C19.425 9.19002 17.752 9.39502 16.208 9.80002C15.805 9.53502 15.433 9.30102 15.099 9.10102C14.167 8.54502 13.492 8.31702 12.778 8.07702L12.582 8.01102C12.061 7.83402 11.497 7.79602 11.116 7.79602C10.845 7.79602 10.667 7.81502 10.667 7.81502L10.365 7.84702L10.252 8.13002C10.243 8.15202 10.033 8.68802 9.855 9.44902L9.828 9.56502C9.659 10.28 9.468 11.089 9.644 12.365C9.7 12.772 9.8 13.166 9.942 13.539C8.615 15.159 7.943 17.106 7.943 19.334C7.943 25.037 10.709 28.172 16.629 29.14C16.234 29.73 15.958 30.395 15.816 31.104C15.486 31.234 15.187 31.32 14.925 31.36C14.662 31.4 14.388 31.42 14.111 31.42C13.421 31.42 12.758 31.291 12.421 31.091C11.981 30.83 11.364 30.177 10.849 29.426C10.499 28.916 9.802 28.009 9.061 27.671C8.426 27.381 7.763 27.214 7.24 27.214C7.13 27.214 7.03 27.222 6.942 27.236C6.576 27.294 6.274 27.488 6.114 27.77C5.986 27.994 5.965 28.253 6.055 28.478C6.234 28.926 6.897 29.328 7.174 29.48C7.509 29.664 8.093 30.224 8.428 30.764C8.679 31.168 8.798 31.461 8.949 31.831C9.034 32.04 9.127 32.268 9.253 32.543C9.584 33.262 10.606 34.015 11.158 34.346C11.912 34.798 13.312 34.924 14.08 34.958L14.191 34.96C14.49 34.96 14.991 34.915 15.686 34.825V38.002C15.686 38.781 14.695 38.812 14.452 38.812C14.421 38.812 14.955 38.996 14.955 38.996C16.918 39.64 19.009 40 21.187 40C23.365 40 25.456 39.64 27.418 38.997C27.418 38.997 27.999 38.793 27.968 38.797Z"  fill="#18181b"/>
<path d="M37 13.9264C37 11.012 36.0021 8.59462 34.2986 6.6996C34.4836 6.28955 34.6763 5.73947 34.772 5.04808C34.9915 3.47099 34.7325 2.52474 34.513 1.59868C34.2935 0.672617 34.0345 0.0215975 34.0345 0.0215975C34.0345 0.0215975 32.8579 -0.0969992 31.8613 0.238604C30.8647 0.574207 30.0072 0.830325 28.7707 1.55957C28.1927 1.90022 27.6108 2.27367 27.1502 2.57647C25.1812 2.03648 23.0158 1.75891 20.738 1.75891C18.4398 1.75891 16.2552 2.03774 14.2722 2.58152C13.8103 2.27746 13.2246 1.90148 12.6427 1.55831C11.4062 0.829064 10.5487 0.572946 9.55214 0.237343C8.55554 -0.0982601 7.37902 0.0203365 7.37902 0.0203365C7.37902 0.0203365 7.11998 0.671356 6.9005 1.59742C6.68102 2.52348 6.42198 3.46973 6.64146 5.04681C6.73972 5.75587 6.93878 6.31605 7.12891 6.72861C5.45729 8.61228 4.47728 11.0145 4.47728 13.9252C4.47728 21.4737 8.60148 24.9193 16.1161 25.829C15.2395 26.7449 14.6512 27.9183 14.4534 29.2241C13.9596 29.4386 13.3905 29.6405 12.8431 29.7212C11.4343 29.9319 9.94516 29.7212 9.22802 29.3011C8.51088 28.8809 7.65975 27.9347 7.02173 27.0137C6.48323 26.2365 5.70612 25.3344 5.00174 25.0165C4.0715 24.5963 3.16677 24.4386 2.66273 24.5168C2.15742 24.5963 1.9188 24.9635 2.02471 25.2272C2.13062 25.4896 2.63594 25.8845 3.16805 26.1734C3.70016 26.4623 4.52449 27.2509 5.00301 28.0129C5.5364 28.8633 5.64104 29.3541 6.09276 30.3255C6.4105 31.0094 7.49769 31.8635 8.27226 32.3228C8.93708 32.7177 10.2654 32.9422 11.7023 33.0066C12.1987 33.0293 13.3714 32.8855 14.3603 32.7467V37.4779C14.3603 38.2841 13.6138 38.8973 12.8405 38.756C15.3224 39.5811 17.9728 40 20.738 40C23.5019 40 26.1523 39.5811 28.6368 38.7585C27.8647 38.8986 27.1183 38.2854 27.1183 37.4792V30.1565C27.1183 28.4797 26.4458 26.9645 25.3662 25.8353C32.826 24.9496 37 21.586 37 13.9264ZM4.45431 25.7772C4.2578 25.6776 4.15189 25.4934 4.21824 25.3634C4.2846 25.2335 4.49897 25.2095 4.69548 25.3092C4.892 25.4088 4.99791 25.593 4.93155 25.723C4.8652 25.8529 4.65082 25.8769 4.45431 25.7772ZM6.00089 26.7298C5.89752 26.8408 5.67549 26.8055 5.5045 26.6516C5.33351 26.4977 5.27864 26.2819 5.382 26.1709C5.48536 26.0599 5.70739 26.0952 5.87838 26.2491C6.04937 26.403 6.10425 26.6188 6.00089 26.7298ZM6.96303 28.3069C6.83287 28.3977 6.61211 28.3132 6.47047 28.1176C6.32883 27.9221 6.3199 27.6887 6.45006 27.5978C6.58021 27.507 6.80097 27.5915 6.94261 27.7871C7.08298 27.9826 7.09318 28.216 6.96303 28.3069ZM8.34499 29.4941C8.25694 29.6354 8.00684 29.6417 7.78736 29.5093C7.56788 29.3768 7.46069 29.1547 7.54873 29.0134C7.63678 28.8721 7.88689 28.8658 8.10637 28.9983C8.32585 29.1307 8.43304 29.3528 8.34499 29.4941ZM9.65167 30.6561C9.37987 30.6233 9.17825 30.4555 9.20122 30.2814C9.22291 30.1073 9.46154 29.9937 9.73206 30.0265C10.0039 30.0593 10.2055 30.2271 10.1825 30.4012C10.1608 30.5741 9.92347 30.6889 9.65167 30.6561ZM11.7584 30.9576C11.4688 30.9412 11.2429 30.7772 11.2544 30.593C11.2659 30.4088 11.5096 30.2713 11.7993 30.2877C12.0889 30.3041 12.3148 30.4681 12.3033 30.6523C12.2918 30.8378 12.0481 30.974 11.7584 30.9576ZM13.7465 30.7608C13.4377 30.7608 13.1876 30.6019 13.1876 30.4063C13.1876 30.2107 13.4377 30.0518 13.7465 30.0518C14.0553 30.0518 14.3054 30.2107 14.3054 30.4063C14.3054 30.6019 14.054 30.7608 13.7465 30.7608Z"  fill="#18181b"/>
</g>
<defs>
<clipPath id="clip0_17_2">
<rect width="40" height="40" fill="white"/>
</clipPath>
</defs>
</svg>
